# This file uses centimeters as units for non-parametric coordinates.

mtllib quarter.mtl
g default
v 0.939693 -0.109446 -0.342020
v 0.766045 -0.109446 -0.642787
v 0.500000 -0.109446 -0.866025
v 0.173648 -0.109446 -0.984808
v -0.173648 -0.109446 -0.984808
v -0.500000 -0.109446 -0.866026
v -0.766044 -0.109446 -0.642788
v -0.939692 -0.109446 -0.342020
v -1.000000 -0.109446 -0.000000
v -0.939693 -0.109446 0.342020
v -0.766045 -0.109446 0.642787
v -0.500000 -0.109446 0.866025
v -0.173648 -0.109446 0.984808
v 0.173648 -0.109446 0.984808
v 0.500000 -0.109446 0.866025
v 0.766044 -0.109446 0.642788
v 0.939693 -0.109446 0.342020
v 1.000000 -0.109446 0.000000
v 0.939693 0.109446 -0.342020
v 0.766045 0.109446 -0.642787
v 0.500000 0.109446 -0.866025
v 0.173648 0.109446 -0.984808
v -0.173648 0.109446 -0.984808
v -0.500000 0.109446 -0.866026
v -0.766044 0.109446 -0.642788
v -0.939692 0.109446 -0.342020
v -1.000000 0.109446 -0.000000
v -0.939693 0.109446 0.342020
v -0.766045 0.109446 0.642787
v -0.500000 0.109446 0.866025
v -0.173648 0.109446 0.984808
v 0.173648 0.109446 0.984808
v 0.500000 0.109446 0.866025
v 0.766044 0.109446 0.642788
v 0.939693 0.109446 0.342020
v 1.000000 0.109446 0.000000
v 0.000000 -0.109446 0.000000
v 0.000000 0.109446 0.000000
vt 0.952206 0.693697
vt 0.912118 0.624263
vt 0.850701 0.572728
vt 0.775361 0.545307
vt 0.695187 0.545307
vt 0.619847 0.572728
vt 0.558430 0.624263
vt 0.518342 0.693697
vt 0.504420 0.772653
vt 0.518342 0.851610
vt 0.558430 0.921043
vt 0.619847 0.972579
vt 0.695187 1.000000
vt 0.775361 1.000000
vt 0.850701 0.972579
vt 0.912118 0.921043
vt 0.952206 0.851610
vt 0.966128 0.772653
vt 0.050531 0.484465
vt 0.074850 0.484465
vt 0.099169 0.484465
vt 0.123488 0.484465
vt 0.147807 0.484465
vt 0.172126 0.484465
vt 0.196444 0.484465
vt 0.220763 0.484465
vt 0.245082 0.484465
vt 0.269401 0.484465
vt 0.293720 0.484465
vt 0.318039 0.484465
vt 0.342358 0.484465
vt 0.366677 0.484465
vt 0.390996 0.484465
vt 0.415315 0.484465
vt 0.439634 0.484465
vt 0.463953 0.484465
vt 0.488272 0.484465
vt 0.050531 0.516474
vt 0.074850 0.516474
vt 0.099169 0.516474
vt 0.123488 0.516474
vt 0.147807 0.516474
vt 0.172126 0.516474
vt 0.196444 0.516474
vt 0.220763 0.516474
vt 0.245082 0.516474
vt 0.269401 0.516474
vt 0.293720 0.516474
vt 0.318039 0.516474
vt 0.342358 0.516474
vt 0.366677 0.516474
vt 0.390996 0.516474
vt 0.415315 0.516474
vt 0.439634 0.516474
vt 0.463953 0.516474
vt 0.488272 0.516474
vt 0.481658 0.693697
vt 0.441570 0.624263
vt 0.380153 0.572728
vt 0.304813 0.545307
vt 0.224639 0.545307
vt 0.149299 0.572728
vt 0.087882 0.624263
vt 0.047794 0.693697
vt 0.033872 0.772653
vt 0.047794 0.851610
vt 0.087882 0.921043
vt 0.149299 0.972579
vt 0.224639 1.000000
vt 0.304813 1.000000
vt 0.380153 0.972579
vt 0.441570 0.921043
vt 0.481658 0.851610
vt 0.495580 0.772653
vt 0.735274 0.763419
vt 0.264726 0.763419
vn 0.939693 0.000000 -0.342020
vn 0.766045 0.000000 -0.642787
vn 0.766045 0.000000 -0.642787
vn 0.939693 0.000000 -0.342020
vn 0.500000 0.000000 -0.866025
vn 0.500000 0.000000 -0.866025
vn 0.173649 0.000000 -0.984808
vn 0.173649 0.000000 -0.984808
vn -0.173648 0.000000 -0.984808
vn -0.173648 0.000000 -0.984808
vn -0.500000 0.000000 -0.866026
vn -0.500000 0.000000 -0.866026
vn -0.766044 0.000000 -0.642788
vn -0.766044 0.000000 -0.642788
vn -0.939693 0.000000 -0.342020
vn -0.939693 0.000000 -0.342020
vn -1.000000 0.000000 -0.000000
vn -1.000000 0.000000 -0.000000
vn -0.939693 0.000000 0.342020
vn -0.939693 0.000000 0.342020
vn -0.766044 0.000000 0.642788
vn -0.766044 0.000000 0.642788
vn -0.500000 0.000000 0.866025
vn -0.500000 0.000000 0.866025
vn -0.173648 0.000000 0.984808
vn -0.173648 0.000000 0.984808
vn 0.173648 0.000000 0.984808
vn 0.173648 0.000000 0.984808
vn 0.500000 0.000000 0.866026
vn 0.500000 0.000000 0.866026
vn 0.766044 0.000000 0.642788
vn 0.766044 0.000000 0.642788
vn 0.939693 0.000000 0.342020
vn 0.939693 0.000000 0.342020
vn 1.000000 0.000000 0.000000
vn 1.000000 0.000000 0.000000
vn 0.000000 -1.000000 0.000000
vn 0.000000 -1.000000 0.000000
vn 0.000000 -1.000000 -0.000000
vn 0.000000 -1.000000 0.000000
vn 0.000000 -1.000000 0.000000
vn 0.000000 -1.000000 -0.000000
vn 0.000000 -1.000000 0.000000
vn 0.000000 -1.000000 0.000000
vn 0.000000 -1.000000 0.000000
vn 0.000000 -1.000000 0.000000
vn 0.000000 -1.000000 0.000000
vn 0.000000 -1.000000 0.000000
vn 0.000000 -1.000000 0.000000
vn 0.000000 -1.000000 0.000000
vn 0.000000 -1.000000 0.000000
vn 0.000000 -1.000000 0.000000
vn 0.000000 -1.000000 0.000000
vn 0.000000 -1.000000 0.000000
vn 0.000000 -1.000000 0.000000
vn 0.000000 1.000000 0.000000
vn 0.000000 1.000000 0.000000
vn 0.000000 1.000000 -0.000000
vn 0.000000 1.000000 0.000000
vn 0.000000 1.000000 -0.000000
vn 0.000000 1.000000 -0.000000
vn 0.000000 1.000000 0.000000
vn 0.000000 1.000000 0.000000
vn 0.000000 1.000000 0.000000
vn 0.000000 1.000000 0.000000
vn 0.000000 1.000000 0.000000
vn 0.000000 1.000000 0.000000
vn 0.000000 1.000000 0.000000
vn 0.000000 1.000000 0.000000
vn 0.000000 1.000000 0.000000
vn 0.000000 1.000000 0.000000
vn 0.000000 1.000000 0.000000
vn 0.000000 1.000000 0.000000
vn 0.000000 1.000000 0.000000
s 1
g pCylinder1
usemtl aiStandard1SG
f 1/19/1 2/20/2 20/39/3 19/38/4
f 2/20/2 3/21/5 21/40/6 20/39/3
f 3/21/5 4/22/7 22/41/8 21/40/6
f 4/22/7 5/23/9 23/42/10 22/41/8
f 5/23/9 6/24/11 24/43/12 23/42/10
f 6/24/11 7/25/13 25/44/14 24/43/12
f 7/25/13 8/26/15 26/45/16 25/44/14
f 8/26/15 9/27/17 27/46/18 26/45/16
f 9/27/17 10/28/19 28/47/20 27/46/18
f 10/28/19 11/29/21 29/48/22 28/47/20
f 11/29/21 12/30/23 30/49/24 29/48/22
f 12/30/23 13/31/25 31/50/26 30/49/24
f 13/31/25 14/32/27 32/51/28 31/50/26
f 14/32/27 15/33/29 33/52/30 32/51/28
f 15/33/29 16/34/31 34/53/32 33/52/30
f 16/34/31 17/35/33 35/54/34 34/53/32
f 17/35/33 18/36/35 36/55/36 35/54/34
f 18/36/35 1/37/1 19/56/4 36/55/36
s 2
f 2/2/37 1/1/38 37/75/39
f 3/3/40 2/2/37 37/75/39
f 4/4/41 3/3/40 37/75/39
f 5/5/42 4/4/41 37/75/39
f 6/6/43 5/5/42 37/75/39
f 7/7/44 6/6/43 37/75/39
f 8/8/45 7/7/44 37/75/39
f 9/9/46 8/8/45 37/75/39
f 10/10/47 9/9/46 37/75/39
f 11/11/48 10/10/47 37/75/39
f 12/12/49 11/11/48 37/75/39
f 13/13/50 12/12/49 37/75/39
f 14/14/51 13/13/50 37/75/39
f 15/15/52 14/14/51 37/75/39
f 16/16/53 15/15/52 37/75/39
f 17/17/54 16/16/53 37/75/39
f 18/18/55 17/17/54 37/75/39
f 1/1/38 18/18/55 37/75/39
s 3
f 19/73/56 20/72/57 38/76/58
f 20/72/57 21/71/59 38/76/58
f 21/71/59 22/70/60 38/76/58
f 22/70/60 23/69/61 38/76/58
f 23/69/61 24/68/62 38/76/58
f 24/68/62 25/67/63 38/76/58
f 25/67/63 26/66/64 38/76/58
f 26/66/64 27/65/65 38/76/58
f 27/65/65 28/64/66 38/76/58
f 28/64/66 29/63/67 38/76/58
f 29/63/67 30/62/68 38/76/58
f 30/62/68 31/61/69 38/76/58
f 31/61/69 32/60/70 38/76/58
f 32/60/70 33/59/71 38/76/58
f 33/59/71 34/58/72 38/76/58
f 34/58/72 35/57/73 38/76/58
f 35/57/73 36/74/74 38/76/58
f 36/74/74 19/73/56 38/76/58
